<svg data-name="Group 257" xmlns="http://www.w3.org/2000/svg" width="27.743" height="27.748"><g data-name="Group 5" fill="#7d5a81"><path data-name="Path 5" d="M27.672 8.158a10.14 10.14 0 00-.645-3.366 7.108 7.108 0 00-4.06-4.06 10.166 10.166 0 00-3.365-.645C18.116.016 17.644 0 13.877 0S9.638.016 8.158.081a10.141 10.141 0 00-3.366.645 6.77 6.77 0 00-2.461 1.6 6.832 6.832 0 00-1.6 2.456 10.166 10.166 0 00-.644 3.371C.016 9.638.002 10.11.002 13.877s.014 4.239.079 5.723a10.14 10.14 0 00.645 3.366 7.107 7.107 0 004.06 4.06 10.168 10.168 0 003.366.645c1.48.065 1.951.081 5.719.081s4.239-.016 5.719-.081a10.138 10.138 0 003.366-.645 7.1 7.1 0 004.06-4.06 10.173 10.173 0 00.646-3.366c.065-1.48.081-1.951.081-5.719s-.006-4.243-.071-5.723zm-2.5 11.329a7.6 7.6 0 01-.477 2.575 4.6 4.6 0 01-2.633 2.638 7.634 7.634 0 01-2.575.477c-1.464.065-1.9.081-5.6.081s-4.147-.016-5.605-.081a7.6 7.6 0 01-2.58-.477 4.271 4.271 0 01-1.594-1.035 4.315 4.315 0 01-1.035-1.594 7.633 7.633 0 01-.477-2.575c-.065-1.464-.081-1.9-.081-5.605s.016-4.147.081-5.6a7.6 7.6 0 01.477-2.575 4.218 4.218 0 011.041-1.602 4.307 4.307 0 011.594-1.035A7.637 7.637 0 018.283 2.6c1.464-.065 1.9-.081 5.6-.081s4.147.016 5.605.081a7.6 7.6 0 012.575.477 4.266 4.266 0 011.594 1.035 4.313 4.313 0 011.035 1.594 7.636 7.636 0 01.477 2.575c.065 1.464.081 1.9.081 5.6s-.011 4.143-.076 5.606z"/><path data-name="Path 6" d="M13.877 6.749a7.128 7.128 0 107.128 7.128 7.13 7.13 0 00-7.128-7.128zm0 11.752a4.624 4.624 0 114.624-4.624 4.625 4.625 0 01-4.624 4.624z"/><path data-name="Path 7" d="M22.951 6.467a1.664 1.664 0 11-1.664-1.664 1.664 1.664 0 011.664 1.664z"/></g></svg>