<svg width="165" height="33" xmlns="http://www.w3.org/2000/svg" xmlns:xlink="http://www.w3.org/1999/xlink"><defs><path id="a" d="M0 0h27.985v158.898H0z"/></defs><g fill="none" fill-rule="evenodd"><g transform="rotate(90 79.95 81.964)"><mask id="b" fill="#fff"><use xlink:href="#a"/></mask><g mask="url(#b)" fill="#395E60" fill-rule="nonzero"><path d="M-12.818-9.13l1.992-3.5 67.995 38.697-1.992 3.5zm0 12.649l1.992-3.5 67.995 38.697-1.992 3.5zm0 13.326l1.993-3.5 61.639 35.111-1.994 3.5zm.001 12.949l1.992-3.5 51.56 29.345-1.992 3.5zm-.001 13.064l1.992-3.5 67.995 38.697-1.992 3.5zm0 12.649l1.992-3.5 67.995 38.697-1.992 3.5zm0 13.326l1.993-3.5 61.639 35.111-1.994 3.5zm0 12.95l1.993-3.5L40.73 107.65l-1.993 3.499zm-6.349 9.168l1.992-3.5 67.993 38.698-1.992 3.5zm0 12.652l1.992-3.5 67.993 38.698-1.992 3.5zm0 13.325l1.993-3.5 61.639 35.111-1.994 3.5zm0 12.949l1.992-3.5 51.56 29.345-1.993 3.5zm0 12.109l1.993-3.499 51.553 29.366-1.993 3.499z"/></g></g><path d="M.997 29.995V2.013C.997.901 1.898.001 3.01 0h158.9a2.013 2.013 0 012.013 2.013v27.982a2.013 2.013 0 01-2.013 2.013H3.01a2.014 2.014 0 01-2.013-2.013zM5.023 4.022v23.964h154.874V4.026L5.023 4.022z" fill="#395E60" fill-rule="nonzero"/></g></svg>