<svg id="Group_255" data-name="Group 255" xmlns="http://www.w3.org/2000/svg" width="40.09" height="25.836" viewBox="0 0 40.09 25.836">
  <path id="Path_262" data-name="Path 262" d="M6.782,21A1.808,1.808,0,0,0,5,22.782V45.054a1.808,1.808,0,0,0,1.782,1.782H43.309a1.808,1.808,0,0,0,1.782-1.782V22.782A1.808,1.808,0,0,0,43.309,21ZM9.83,23.673H40.26L25.045,37.036Zm-2.158,1.67,9.675,8.477L7.673,42.465Zm34.745,0V42.465L32.743,33.82ZM19.366,35.6l4.8,4.218a1.336,1.336,0,0,0,1.754,0l4.8-4.218,9.591,8.561H9.775Z" transform="translate(-5 -21)" fill="#ae97b1"/>
</svg>
