<svg id="Group_257" data-name="Group 257" xmlns="http://www.w3.org/2000/svg" width="27.743" height="27.748" viewBox="0 0 27.743 27.748">
  <g id="Group_5" data-name="Group 5" transform="translate(0 0)">
    <path id="Path_5" data-name="Path 5" d="M28.57,8.158a10.14,10.14,0,0,0-.645-3.366,7.108,7.108,0,0,0-4.06-4.06A10.166,10.166,0,0,0,20.5.087C19.014.016,18.542,0,14.775,0S10.536.016,9.056.081A10.141,10.141,0,0,0,5.69.726a6.77,6.77,0,0,0-2.461,1.6,6.832,6.832,0,0,0-1.6,2.456A10.166,10.166,0,0,0,.985,8.153C.914,9.638.9,10.11.9,13.877S.914,18.116.979,19.6a10.14,10.14,0,0,0,.645,3.366,7.107,7.107,0,0,0,4.06,4.06,10.168,10.168,0,0,0,3.366.645c1.48.065,1.951.081,5.719.081s4.239-.016,5.719-.081a10.138,10.138,0,0,0,3.366-.645,7.1,7.1,0,0,0,4.06-4.06A10.173,10.173,0,0,0,28.56,19.6c.065-1.48.081-1.951.081-5.719S28.635,9.638,28.57,8.158Zm-2.5,11.329a7.6,7.6,0,0,1-.477,2.575A4.6,4.6,0,0,1,22.96,24.7a7.634,7.634,0,0,1-2.575.477c-1.464.065-1.9.081-5.6.081s-4.147-.016-5.605-.081A7.6,7.6,0,0,1,6.6,24.7a4.271,4.271,0,0,1-1.594-1.035,4.315,4.315,0,0,1-1.035-1.594,7.633,7.633,0,0,1-.477-2.575c-.065-1.464-.081-1.9-.081-5.605s.016-4.147.081-5.6a7.6,7.6,0,0,1,.477-2.575A4.218,4.218,0,0,1,5.012,4.114,4.307,4.307,0,0,1,6.606,3.079,7.637,7.637,0,0,1,9.181,2.6c1.464-.065,1.9-.081,5.6-.081s4.147.016,5.605.081a7.6,7.6,0,0,1,2.575.477,4.266,4.266,0,0,1,1.594,1.035,4.313,4.313,0,0,1,1.035,1.594,7.636,7.636,0,0,1,.477,2.575c.065,1.464.081,1.9.081,5.6S26.137,18.024,26.072,19.487Z" transform="translate(-0.898 0)" fill="#7d5a81"/>
    <path id="Path_6" data-name="Path 6" d="M132.307,124.281a7.128,7.128,0,1,0,7.128,7.128A7.13,7.13,0,0,0,132.307,124.281Zm0,11.752a4.624,4.624,0,1,1,4.624-4.624A4.625,4.625,0,0,1,132.307,136.033Z" transform="translate(-118.43 -117.532)" fill="#7d5a81"/>
    <path id="Path_7" data-name="Path 7" d="M365.589,90.11a1.664,1.664,0,1,1-1.664-1.664A1.664,1.664,0,0,1,365.589,90.11Z" transform="translate(-342.638 -83.643)" fill="#7d5a81"/>
  </g>
</svg>
